# xmcd
#
# Track frame offsets: 
#        150
#        13085
#        31055
#        46149
#        61231
#        77127
#        89418
#        101465
#        122542
#        135456
#        150702
#        170385
#
# Disc length: 2549 seconds
#
# Revision: 0
# Processed by: cddbd v1.4PL0 Copyright (c) Steve Scherf et al.
# Submitted via: ExactAudioCopy v0.90a11
#
DISCID=8809f30c
DTITLE=Helander Co. - Fodder
DYEAR=1900
DGENRE=
TTITLE0=It's Not for Me But for My Friend
TTITLE1=Blues Street Cairo
TTITLE2=My Home Town
TTITLE3=You're Gonna Miss Me
TTITLE4=Fodder
TTITLE5=White Rat
TTITLE6=Let Me Know
TTITLE7=Lightnin' Head
TTITLE8=Roller Coaster Hop
TTITLE9=Private Professor
TTITLE10=Big D Never Sleeps
TTITLE11=Alone Black and Blue
EXTD=
EXTT0=
EXTT1=
EXTT2=
EXTT3=
EXTT4=
EXTT5=
EXTT6=
EXTT7=
EXTT8=
EXTT9=
EXTT10=
EXTT11=
PLAYORDER=
